<?xml version="1.0" encoding="UTF-8" standalone="no"?>
<!DOCTYPE svg PUBLIC "-//W3C//DTD SVG 1.1//EN" "http://www.w3.org/Graphics/SVG/1.1/DTD/svg11.dtd">
<!-- Created with Vectornator (http://vectornator.io/) -->
<svg height="100%" stroke-miterlimit="10" style="fill-rule:nonzero;clip-rule:evenodd;stroke-linecap:round;stroke-linejoin:round;" version="1.1" viewBox="0 0 717.255 385.56" width="100%" xml:space="preserve" xmlns="http://www.w3.org/2000/svg" xmlns:vectornator="http://vectornator.io" xmlns:xlink="http://www.w3.org/1999/xlink">
<defs>
<clipPath id="TextBounds">
<rect height="28.35" width="70.875" x="147.42" y="28.35"/>
</clipPath>
<clipPath id="TextBounds_2">
<rect height="28.35" width="70.875" x="487.599" y="28.35"/>
</clipPath>
<clipPath id="TextBounds_3">
<rect height="52.9238" width="21.5298" x="343.154" y="96.947"/>
</clipPath>
<clipPath id="TextBounds_4">
<rect height="26.9619" width="21.2905" x="346.844" y="164.759"/>
</clipPath>
<clipPath id="TextBounds_5">
<rect height="41" width="150.255" x="530.499" y="86.3364"/>
</clipPath>
<clipPath id="TextBounds_6">
<rect height="52.9238" width="46.4297" x="330.549" y="278.379"/>
</clipPath>
<clipPath id="TextBounds_7">
<rect height="41" width="166.827" x="15.4456" y="148.096"/>
</clipPath>
<clipPath id="TextBounds_8">
<rect height="41" width="183.053" x="530.584" y="232.34"/>
</clipPath>
<clipPath id="TextBounds_9">
<rect height="16.1372" width="25.595" x="593.652" y="289.17"/>
</clipPath>
<clipPath id="TextBounds_10">
<rect height="17.2823" width="27.7188" x="79.38" y="289.17"/>
</clipPath>
</defs>
<g id="Layer-1" vectornator:layerName="Layer 1">
<path d="M521.218 63.4295L522.177 358.438" fill="none" opacity="1" stroke="#000000" stroke-linecap="butt" stroke-linejoin="round" stroke-width="5"/>
<path d="M181.318 63.4288L182.276 358.438" fill="none" opacity="1" stroke="#000000" stroke-linecap="butt" stroke-linejoin="round" stroke-width="5"/>
<g fill="#000000" opacity="1" stroke="none">
<path clip-path="url(#TextBounds)" d="M163.369 33.0961L163.732 38.4984L163.369 38.4984C162.885 36.8812 162.193 35.7172 161.295 35.0063C160.397 34.2953 159.318 33.9398 158.061 33.9398C157.006 33.9398 156.053 34.2074 155.201 34.7426C154.35 35.2777 153.68 36.1312 153.191 37.3031C152.703 38.475 152.459 39.932 152.459 41.6742C152.459 43.1117 152.69 44.3578 153.15 45.4125C153.611 46.4672 154.305 47.2758 155.231 47.8383C156.156 48.4008 157.213 48.682 158.4 48.682C159.432 48.682 160.342 48.4613 161.131 48.0199C161.92 47.5785 162.787 46.7016 163.732 45.3891L164.096 45.6234C163.299 47.0375 162.369 48.0727 161.307 48.7289C160.244 49.3852 158.983 49.7133 157.522 49.7133C154.889 49.7133 152.85 48.7367 151.404 46.7836C150.326 45.3305 149.787 43.6195 149.787 41.6508C149.787 40.0648 150.143 38.6078 150.854 37.2797C151.565 35.9516 152.543 34.9223 153.789 34.1918C155.035 33.4613 156.397 33.0961 157.873 33.0961C159.022 33.0961 160.154 33.3773 161.272 33.9398C161.6 34.1117 161.834 34.1977 161.975 34.1977C162.186 34.1977 162.369 34.1234 162.525 33.975C162.729 33.7641 162.873 33.4711 162.959 33.0961L163.369 33.0961Z"/>
<path clip-path="url(#TextBounds)" d="M169.369 32.6859L169.369 46.9242C169.369 47.5961 169.418 48.0414 169.516 48.2602C169.613 48.4789 169.764 48.6449 169.967 48.7582C170.17 48.8715 170.549 48.9281 171.104 48.9281L171.104 49.35L165.842 49.35L165.842 48.9281C166.334 48.9281 166.67 48.8773 166.85 48.7758C167.029 48.6742 167.17 48.5063 167.272 48.2719C167.373 48.0375 167.424 47.5883 167.424 46.9242L167.424 37.1742C167.424 35.9633 167.397 35.2191 167.342 34.9418C167.287 34.6645 167.199 34.475 167.078 34.3734C166.957 34.2719 166.803 34.2211 166.615 34.2211C166.412 34.2211 166.154 34.2836 165.842 34.4086L165.643 33.9984L168.842 32.6859L169.369 32.6859Z"/>
<path clip-path="url(#TextBounds)" d="M175.076 32.6859C175.404 32.6859 175.684 32.8012 175.914 33.0316C176.145 33.2621 176.26 33.5414 176.26 33.8695C176.26 34.1977 176.145 34.4789 175.914 34.7133C175.684 34.9477 175.404 35.0648 175.076 35.0648C174.748 35.0648 174.467 34.9477 174.232 34.7133C173.998 34.4789 173.881 34.1977 173.881 33.8695C173.881 33.5414 173.996 33.2621 174.227 33.0316C174.457 32.8012 174.74 32.6859 175.076 32.6859ZM176.049 38.2992L176.049 46.9242C176.049 47.5961 176.098 48.0434 176.195 48.266C176.293 48.4887 176.438 48.6547 176.629 48.7641C176.82 48.8734 177.17 48.9281 177.678 48.9281L177.678 49.35L172.463 49.35L172.463 48.9281C172.986 48.9281 173.338 48.8773 173.518 48.7758C173.697 48.6742 173.84 48.5063 173.945 48.2719C174.051 48.0375 174.104 47.5883 174.104 46.9242L174.104 42.7875C174.104 41.6234 174.068 40.8695 173.998 40.5258C173.943 40.2758 173.858 40.102 173.74 40.0043C173.623 39.9066 173.463 39.8578 173.26 39.8578C173.041 39.8578 172.775 39.9164 172.463 40.0336L172.299 39.6117L175.533 38.2992L176.049 38.2992Z"/>
<path clip-path="url(#TextBounds)" d="M180.818 42.6586C180.811 44.2523 181.197 45.5023 181.979 46.4086C182.76 47.3148 183.678 47.768 184.732 47.768C185.436 47.768 186.047 47.5746 186.566 47.1879C187.086 46.8012 187.522 46.1391 187.873 45.2016L188.236 45.4359C188.072 46.5063 187.596 47.4809 186.807 48.3598C186.018 49.2387 185.029 49.6781 183.842 49.6781C182.553 49.6781 181.449 49.1762 180.531 48.1723C179.613 47.1684 179.154 45.8188 179.154 44.1234C179.154 42.2875 179.625 40.8559 180.566 39.8285C181.508 38.8012 182.69 38.2875 184.111 38.2875C185.315 38.2875 186.303 38.684 187.076 39.477C187.85 40.2699 188.236 41.3305 188.236 42.6586L180.818 42.6586ZM180.818 41.9789L185.787 41.9789C185.748 41.2914 185.666 40.807 185.541 40.5258C185.346 40.0883 185.055 39.7445 184.668 39.4945C184.281 39.2445 183.877 39.1195 183.455 39.1195C182.807 39.1195 182.227 39.3715 181.715 39.8754C181.203 40.3793 180.904 41.0805 180.818 41.9789Z"/>
<path clip-path="url(#TextBounds)" d="M192.795 40.5727C194.053 39.057 195.252 38.2992 196.393 38.2992C196.979 38.2992 197.482 38.4457 197.904 38.7387C198.326 39.0316 198.662 39.5141 198.912 40.1859C199.084 40.6547 199.17 41.3734 199.17 42.3422L199.17 46.9242C199.17 47.6039 199.225 48.0648 199.334 48.307C199.42 48.5023 199.559 48.6547 199.75 48.7641C199.941 48.8734 200.295 48.9281 200.811 48.9281L200.811 49.35L195.502 49.35L195.502 48.9281L195.725 48.9281C196.225 48.9281 196.574 48.852 196.774 48.6996C196.973 48.5473 197.111 48.3227 197.19 48.0258C197.221 47.9086 197.236 47.5414 197.236 46.9242L197.236 42.5297C197.236 41.5531 197.109 40.8441 196.856 40.4027C196.602 39.9613 196.174 39.7406 195.572 39.7406C194.643 39.7406 193.717 40.2484 192.795 41.2641L192.795 46.9242C192.795 47.6508 192.838 48.1 192.924 48.2719C193.033 48.4984 193.184 48.6645 193.375 48.7699C193.566 48.8754 193.955 48.9281 194.541 48.9281L194.541 49.35L189.232 49.35L189.232 48.9281L189.467 48.9281C190.014 48.9281 190.383 48.7895 190.574 48.5121C190.766 48.2348 190.861 47.7055 190.861 46.9242L190.861 42.9398C190.861 41.6508 190.832 40.8656 190.774 40.5844C190.715 40.3031 190.625 40.1117 190.504 40.0102C190.383 39.9086 190.221 39.8578 190.018 39.8578C189.799 39.8578 189.537 39.9164 189.232 40.0336L189.057 39.6117L192.291 38.2992L192.795 38.2992L192.795 40.5727Z"/>
<path clip-path="url(#TextBounds)" d="M204.783 35.0883L204.783 38.6156L207.291 38.6156L207.291 39.4359L204.783 39.4359L204.783 46.3969C204.783 47.0922 204.883 47.5609 205.082 47.8031C205.281 48.0453 205.537 48.1664 205.85 48.1664C206.108 48.1664 206.357 48.0863 206.6 47.9262C206.842 47.766 207.029 47.5297 207.162 47.2172L207.619 47.2172C207.346 47.9828 206.959 48.559 206.459 48.9457C205.959 49.3324 205.443 49.5258 204.912 49.5258C204.553 49.5258 204.201 49.4262 203.857 49.227C203.514 49.0277 203.26 48.7426 203.096 48.3715C202.932 48.0004 202.85 47.4281 202.85 46.6547L202.85 39.4359L201.15 39.4359L201.15 39.0492C201.58 38.8773 202.02 38.5863 202.469 38.1762C202.918 37.766 203.318 37.2797 203.67 36.7172C203.85 36.4203 204.1 35.8773 204.42 35.0883L204.783 35.0883Z"/>
</g>
<g fill="#000000" opacity="1" stroke="none">
<path clip-path="url(#TextBounds_2)" d="M500.103 33.0961L500.103 38.5922L499.669 38.5922C499.529 37.5375 499.277 36.6977 498.914 36.0727C498.55 35.4477 498.033 34.9516 497.361 34.5844C496.689 34.2172 495.994 34.0336 495.275 34.0336C494.462 34.0336 493.79 34.2816 493.259 34.7777C492.728 35.2738 492.462 35.8383 492.462 36.4711C492.462 36.9555 492.63 37.3969 492.966 37.7953C493.451 38.3813 494.603 39.1625 496.423 40.1391C497.908 40.9359 498.921 41.5473 499.464 41.973C500.007 42.3988 500.425 42.9008 500.718 43.4789C501.011 44.057 501.158 44.6625 501.158 45.2953C501.158 46.4984 500.691 47.5355 499.757 48.4066C498.824 49.2777 497.623 49.7133 496.154 49.7133C495.693 49.7133 495.259 49.6781 494.853 49.6078C494.611 49.5687 494.109 49.4262 493.347 49.1801C492.585 48.934 492.103 48.8109 491.9 48.8109C491.705 48.8109 491.55 48.8695 491.437 48.9867C491.324 49.1039 491.24 49.3461 491.185 49.7133L490.751 49.7133L490.751 44.2641L491.185 44.2641C491.388 45.4047 491.662 46.2582 492.005 46.8246C492.349 47.391 492.874 47.8617 493.581 48.2367C494.289 48.6117 495.064 48.7992 495.908 48.7992C496.884 48.7992 497.656 48.5414 498.222 48.0258C498.789 47.5102 499.072 46.9008 499.072 46.1977C499.072 45.807 498.964 45.4125 498.749 45.0141C498.535 44.6156 498.201 44.2445 497.748 43.9008C497.443 43.6664 496.611 43.1684 495.251 42.4066C493.892 41.6449 492.925 41.0375 492.351 40.5844C491.777 40.1312 491.341 39.6313 491.044 39.0844C490.748 38.5375 490.599 37.9359 490.599 37.2797C490.599 36.1391 491.037 35.1566 491.912 34.3324C492.787 33.5082 493.9 33.0961 495.251 33.0961C496.095 33.0961 496.99 33.3031 497.935 33.7172C498.373 33.9125 498.681 34.0102 498.861 34.0102C499.064 34.0102 499.23 33.9496 499.359 33.8285C499.488 33.7074 499.591 33.4633 499.669 33.0961L500.103 33.0961Z"/>
<path clip-path="url(#TextBounds_2)" d="M505.001 42.6586C504.994 44.2523 505.38 45.5023 506.162 46.4086C506.943 47.3148 507.861 47.768 508.915 47.768C509.619 47.768 510.23 47.5746 510.749 47.1879C511.269 46.8012 511.705 46.1391 512.056 45.2016L512.419 45.4359C512.255 46.5063 511.779 47.4809 510.99 48.3598C510.201 49.2387 509.212 49.6781 508.025 49.6781C506.736 49.6781 505.632 49.1762 504.714 48.1723C503.796 47.1684 503.337 45.8188 503.337 44.1234C503.337 42.2875 503.808 40.8559 504.749 39.8285C505.691 38.8012 506.873 38.2875 508.294 38.2875C509.498 38.2875 510.486 38.684 511.259 39.477C512.033 40.2699 512.419 41.3305 512.419 42.6586L505.001 42.6586ZM505.001 41.9789L509.97 41.9789C509.931 41.2914 509.849 40.807 509.724 40.5258C509.529 40.0883 509.238 39.7445 508.851 39.4945C508.464 39.2445 508.06 39.1195 507.638 39.1195C506.99 39.1195 506.41 39.3715 505.898 39.8754C505.386 40.3793 505.087 41.0805 505.001 41.9789Z"/>
<path clip-path="url(#TextBounds_2)" d="M516.99 38.2992L516.99 40.7133C517.888 39.1039 518.81 38.2992 519.755 38.2992C520.185 38.2992 520.54 38.4301 520.822 38.6918C521.103 38.9535 521.244 39.2562 521.244 39.6C521.244 39.9047 521.142 40.1625 520.939 40.3734C520.736 40.5844 520.494 40.6898 520.212 40.6898C519.939 40.6898 519.632 40.5551 519.292 40.2855C518.953 40.016 518.701 39.8813 518.537 39.8813C518.396 39.8813 518.244 39.9594 518.08 40.1156C517.728 40.4359 517.365 40.9633 516.99 41.6977L516.99 46.8422C516.99 47.4359 517.064 47.8852 517.212 48.1898C517.314 48.4008 517.494 48.5766 517.751 48.7172C518.009 48.8578 518.38 48.9281 518.865 48.9281L518.865 49.35L513.369 49.35L513.369 48.9281C513.915 48.9281 514.322 48.8422 514.587 48.6703C514.783 48.5453 514.919 48.3461 514.998 48.0727C515.037 47.9398 515.056 47.5609 515.056 46.9359L515.056 42.7758C515.056 41.5258 515.031 40.7816 514.98 40.5434C514.929 40.3051 514.835 40.1313 514.699 40.0219C514.562 39.9125 514.392 39.8578 514.189 39.8578C513.947 39.8578 513.673 39.9164 513.369 40.0336L513.251 39.6117L516.498 38.2992L516.99 38.2992Z"/>
<path clip-path="url(#TextBounds_2)" d="M521.29 38.6156L526.341 38.6156L526.341 39.0492L526.013 39.0492C525.708 39.0492 525.476 39.1234 525.316 39.2719C525.156 39.4203 525.076 39.6195 525.076 39.8695C525.076 40.143 525.158 40.4672 525.322 40.8422L527.818 46.7719L530.326 40.6195C530.505 40.182 530.595 39.85 530.595 39.6234C530.595 39.5141 530.564 39.4242 530.501 39.3539C530.415 39.2367 530.306 39.1566 530.173 39.1137C530.04 39.0707 529.771 39.0492 529.365 39.0492L529.365 38.6156L532.869 38.6156L532.869 39.0492C532.462 39.0805 532.181 39.1625 532.025 39.2953C531.751 39.5297 531.505 39.9203 531.287 40.4672L527.478 49.6781L526.998 49.6781L523.165 40.6195C522.994 40.1977 522.83 39.8949 522.673 39.7113C522.517 39.5277 522.318 39.3734 522.076 39.2484C521.943 39.1781 521.681 39.1117 521.29 39.0492L521.29 38.6156Z"/>
<path clip-path="url(#TextBounds_2)" d="M535.646 42.6586C535.638 44.2523 536.025 45.5023 536.806 46.4086C537.587 47.3148 538.505 47.768 539.56 47.768C540.263 47.768 540.874 47.5746 541.394 47.1879C541.914 46.8012 542.349 46.1391 542.701 45.2016L543.064 45.4359C542.9 46.5063 542.423 47.4809 541.634 48.3598C540.845 49.2387 539.857 49.6781 538.669 49.6781C537.38 49.6781 536.277 49.1762 535.359 48.1723C534.441 47.1684 533.982 45.8188 533.982 44.1234C533.982 42.2875 534.453 40.8559 535.394 39.8285C536.335 38.8012 537.517 38.2875 538.939 38.2875C540.142 38.2875 541.13 38.684 541.904 39.477C542.677 40.2699 543.064 41.3305 543.064 42.6586L535.646 42.6586ZM535.646 41.9789L540.615 41.9789C540.576 41.2914 540.494 40.807 540.369 40.5258C540.173 40.0883 539.882 39.7445 539.496 39.4945C539.109 39.2445 538.705 39.1195 538.283 39.1195C537.634 39.1195 537.054 39.3715 536.542 39.8754C536.031 40.3793 535.732 41.0805 535.646 41.9789Z"/>
<path clip-path="url(#TextBounds_2)" d="M547.634 38.2992L547.634 40.7133C548.533 39.1039 549.455 38.2992 550.4 38.2992C550.83 38.2992 551.185 38.4301 551.466 38.6918C551.748 38.9535 551.888 39.2562 551.888 39.6C551.888 39.9047 551.787 40.1625 551.583 40.3734C551.38 40.5844 551.138 40.6898 550.857 40.6898C550.583 40.6898 550.277 40.5551 549.937 40.2855C549.597 40.016 549.345 39.8813 549.181 39.8813C549.04 39.8813 548.888 39.9594 548.724 40.1156C548.373 40.4359 548.009 40.9633 547.634 41.6977L547.634 46.8422C547.634 47.4359 547.708 47.8852 547.857 48.1898C547.958 48.4008 548.138 48.5766 548.396 48.7172C548.654 48.8578 549.025 48.9281 549.509 48.9281L549.509 49.35L544.013 49.35L544.013 48.9281C544.56 48.9281 544.966 48.8422 545.232 48.6703C545.427 48.5453 545.564 48.3461 545.642 48.0727C545.681 47.9398 545.701 47.5609 545.701 46.9359L545.701 42.7758C545.701 41.5258 545.675 40.7816 545.624 40.5434C545.574 40.3051 545.48 40.1313 545.343 40.0219C545.206 39.9125 545.037 39.8578 544.833 39.8578C544.591 39.8578 544.318 39.9164 544.013 40.0336L543.896 39.6117L547.142 38.2992L547.634 38.2992Z"/>
</g>
<g opacity="1">
<path d="M214.172 121.342C230.827 121.344 493.173 121.366 493.173 121.366" fill="none" stroke="#000000" stroke-linecap="butt" stroke-linejoin="round" stroke-width="1"/>
<g fill="#000000" stroke="none">
<path d="M215.672 117.843L209.672 121.342L215.672 124.843L215.672 117.843Z" fill="#000000"/>
</g>
</g>
<g opacity="1">
<path d="M488.663 189.405C472.009 189.404 209.662 189.382 209.662 189.382" fill="none" stroke="#000000" stroke-linecap="butt" stroke-linejoin="round" stroke-width="1"/>
<g fill="#000000" stroke="none">
<path d="M487.163 192.905L493.163 189.406L487.164 185.905L487.163 192.905Z" fill="#000000"/>
</g>
</g>
<g opacity="1">
<path d="M488.671 299.97C471.536 299.969 214.172 299.947 214.172 299.947" fill="none" stroke="#000000" stroke-linecap="butt" stroke-linejoin="round" stroke-width="1"/>
<g fill="#000000" stroke="none">
<path d="M215.672 296.448L209.672 299.947L215.672 303.448L215.672 296.448Z" fill="#000000"/>
<path d="M487.171 303.47L493.171 299.971L487.171 296.47L487.171 303.47Z" fill="#000000"/>
</g>
</g>
<g fill="#000000" opacity="1" stroke="none">
<path clip-path="url(#TextBounds_3)" d="M348.415 104.435L347.842 106.344C348.445 105.636 348.983 105.14 349.456 104.858C349.929 104.576 350.412 104.435 350.905 104.435C351.397 104.435 351.818 104.63 352.167 105.02C352.515 105.41 352.689 105.918 352.689 106.543C352.689 107.761 352.194 108.999 351.204 110.258C350.213 111.517 349.059 112.146 347.742 112.146C347.466 112.146 347.221 112.116 347.008 112.055C346.795 111.994 346.555 111.886 346.29 111.731L345.684 113.873C345.562 114.293 345.501 114.567 345.501 114.695C345.501 114.816 345.533 114.92 345.596 115.006C345.66 115.092 345.764 115.158 345.908 115.205C346.052 115.252 346.337 115.276 346.763 115.276L346.688 115.583L342.778 115.583L342.861 115.276C343.376 115.254 343.723 115.165 343.903 115.01C344.083 114.855 344.272 114.426 344.472 113.723L346.572 106.452C346.699 105.993 346.763 105.708 346.763 105.597C346.763 105.448 346.72 105.331 346.634 105.248C346.548 105.165 346.417 105.124 346.24 105.124C346.079 105.124 345.855 105.143 345.567 105.182L345.567 104.858L348.415 104.435ZM346.481 111.075C346.824 111.485 347.286 111.69 347.867 111.69C348.154 111.69 348.448 111.609 348.747 111.449C349.045 111.288 349.337 111.051 349.622 110.735C349.907 110.42 350.163 110.056 350.39 109.644C350.617 109.231 350.82 108.746 351 108.187C351.18 107.628 351.27 107.074 351.27 106.527C351.27 106.084 351.169 105.745 350.967 105.51C350.765 105.275 350.529 105.157 350.257 105.157C349.66 105.157 349.069 105.5 348.485 106.186C347.901 106.872 347.474 107.675 347.203 108.594L346.481 111.075Z"/>
<path clip-path="url(#TextBounds_3)" d="M358.019 100.143L355.661 108.303L356.607 107.498C357.642 106.623 358.315 105.976 358.625 105.555C358.724 105.417 358.774 105.312 358.774 105.24C358.774 105.19 358.757 105.143 358.724 105.099C358.691 105.055 358.626 105.019 358.529 104.991C358.432 104.963 358.262 104.949 358.019 104.949L357.728 104.949L357.819 104.634L361.447 104.634L361.364 104.949C360.949 104.972 360.59 105.037 360.289 105.145C359.987 105.252 359.695 105.412 359.413 105.622C358.854 106.037 358.486 106.325 358.309 106.485L357.595 107.116C357.717 107.514 357.866 108.071 358.043 108.784C358.342 109.969 358.544 110.671 358.649 110.893C358.755 111.114 358.863 111.225 358.973 111.225C359.067 111.225 359.178 111.178 359.305 111.084C359.593 110.873 359.9 110.539 360.227 110.079L360.517 110.287C359.914 111.045 359.452 111.544 359.131 111.785C358.81 112.026 358.517 112.146 358.251 112.146C358.019 112.146 357.839 112.055 357.711 111.872C357.49 111.546 357.122 110.259 356.607 108.012L355.47 109L354.615 111.947L353.32 111.947L356.076 102.476L356.309 101.671C356.336 101.532 356.35 101.411 356.35 101.305C356.35 101.173 356.299 101.062 356.197 100.973C356.094 100.885 355.946 100.841 355.752 100.841C355.625 100.841 355.423 100.868 355.147 100.924L355.147 100.633L358.019 100.143Z"/>
</g>
<path clip-path="url(#TextBounds_4)" d="M354.91 177.95C354.334 178.642 353.753 179.149 353.167 179.473C352.58 179.797 351.96 179.959 351.307 179.959C350.521 179.959 349.909 179.737 349.469 179.295C349.029 178.852 348.809 178.257 348.809 177.51C348.809 176.663 349.045 175.83 349.518 175.011C349.992 174.192 350.628 173.527 351.428 173.015C352.227 172.503 353.012 172.247 353.781 172.247C354.384 172.247 354.835 172.373 355.134 172.625C355.433 172.877 355.582 173.185 355.582 173.55C355.582 173.894 355.477 174.187 355.267 174.43C355.112 174.618 354.921 174.713 354.694 174.713C354.522 174.713 354.38 174.657 354.266 174.547C354.153 174.436 354.096 174.297 354.096 174.131C354.096 174.026 354.117 173.929 354.159 173.841C354.2 173.752 354.286 173.646 354.416 173.521C354.546 173.397 354.625 173.307 354.652 173.252C354.68 173.196 354.694 173.138 354.694 173.077C354.694 172.961 354.641 172.864 354.536 172.787C354.376 172.676 354.149 172.621 353.856 172.621C353.313 172.621 352.776 172.812 352.245 173.193C351.714 173.575 351.26 174.118 350.884 174.82C350.43 175.673 350.203 176.525 350.203 177.377C350.203 177.942 350.364 178.388 350.685 178.718C351.006 179.047 351.443 179.212 351.996 179.212C352.422 179.212 352.844 179.105 353.262 178.892C353.68 178.679 354.149 178.293 354.669 177.734L354.91 177.95Z" fill="#000000" opacity="1" stroke="none"/>
<g fill="#000000" opacity="1" stroke="none">
<path clip-path="url(#TextBounds_5)" d="M539.109 98.3364L537.808 98.3364L535.002 95.0483L534.354 95.6069L534.354 98.3364L533.364 98.3364L533.364 89.3798L534.354 89.3798L534.354 94.5151L537.458 91.7221L538.722 91.7221L535.707 94.4262L539.109 98.3364Z"/>
<path clip-path="url(#TextBounds_5)" d="M546.561 91.7221L544.054 98.3364C543.69 99.3097 543.329 99.9889 542.971 100.374C542.614 100.759 542.207 100.952 541.749 100.952C541.343 100.952 540.941 100.878 540.543 100.729L540.708 99.936C541.03 100.038 541.318 100.088 541.572 100.088C541.927 100.088 542.219 99.9508 542.448 99.6757C542.676 99.4007 542.907 98.95 543.14 98.3237L540.658 91.7221L541.737 91.7221L543.609 96.997L545.482 91.7221L546.561 91.7221Z"/>
<path clip-path="url(#TextBounds_5)" d="M549.957 92.5791C550.177 92.2744 550.474 92.0289 550.849 91.8427C551.223 91.6565 551.618 91.5634 552.033 91.5634C552.803 91.5634 553.403 91.8724 553.832 92.4902C554.262 93.108 554.477 93.9205 554.477 94.9277C554.477 95.9475 554.248 96.7992 553.791 97.4826C553.334 98.1661 552.722 98.5078 551.957 98.5078C551.546 98.5078 551.162 98.4051 550.804 98.1999C550.447 97.9947 550.164 97.7228 549.957 97.3842L549.957 98.3364L548.967 98.3364L548.967 89.3798L549.957 89.3798L549.957 92.5791ZM549.957 93.5629L549.957 96.3115C550.143 96.6839 550.395 96.9949 550.712 97.2446C551.03 97.4943 551.358 97.6191 551.696 97.6191C552.229 97.6191 552.654 97.3652 552.969 96.8574C553.284 96.3496 553.442 95.7254 553.442 94.9848C553.442 94.2231 553.292 93.6053 552.991 93.1313C552.691 92.6573 552.272 92.4204 551.734 92.4204C551.036 92.4204 550.444 92.8012 549.957 93.5629Z"/>
<path clip-path="url(#TextBounds_5)" d="M562.062 95.061L557.523 95.061C557.523 95.81 557.74 96.4279 558.174 96.9145C558.608 97.4012 559.14 97.6445 559.77 97.6445C560.371 97.6445 560.991 97.5366 561.63 97.3208L561.802 98.1142C561.218 98.3766 560.536 98.5078 559.758 98.5078C558.776 98.5078 557.985 98.1925 557.384 97.562C556.783 96.9314 556.482 96.0808 556.482 95.0102C556.482 93.9607 556.752 93.1239 557.292 92.4997C557.831 91.8755 558.528 91.5634 559.383 91.5634C560.145 91.5634 560.782 91.8533 561.294 92.4331C561.806 93.0128 562.062 93.7851 562.062 94.75L562.062 95.061ZM560.983 94.2548C560.983 93.7386 560.822 93.3037 560.5 92.9504C560.179 92.597 559.819 92.4204 559.421 92.4204C558.909 92.4204 558.485 92.5896 558.149 92.9282C557.812 93.2667 557.625 93.7089 557.587 94.2548L560.983 94.2548Z"/>
<path clip-path="url(#TextBounds_5)" d="M569.768 91.8999L569.368 92.852C568.932 92.6616 568.556 92.5664 568.238 92.5664C567.946 92.5664 567.661 92.6499 567.381 92.8171C567.102 92.9842 566.845 93.2233 566.61 93.5344C566.375 93.8454 566.258 94.02 566.258 94.0581L566.258 98.3364L565.274 98.3364L565.274 91.7221L566.258 91.7221L566.258 93.0615C566.787 92.0628 567.472 91.5634 568.314 91.5634C568.814 91.5634 569.298 91.6756 569.768 91.8999Z"/>
<path clip-path="url(#TextBounds_5)" d="M574.865 96.8828C575.089 96.8828 575.278 96.9589 575.43 97.1113C575.582 97.2636 575.659 97.4519 575.659 97.6762C575.659 97.9047 575.581 98.1005 575.427 98.2634C575.273 98.4263 575.085 98.5078 574.865 98.5078C574.649 98.5078 574.465 98.4263 574.313 98.2634C574.161 98.1005 574.084 97.9047 574.084 97.6762C574.084 97.4477 574.16 97.2583 574.31 97.1081C574.46 96.9579 574.645 96.8828 574.865 96.8828Z"/>
<path clip-path="url(#TextBounds_5)" d="M586.462 98.3364L585.148 98.3364L582.121 93.9438L581.175 94.9721L581.175 98.3364L580.134 98.3364L580.134 89.3798L581.175 89.3798L581.175 93.6709L585.148 89.3798L586.348 89.3798L582.851 93.163L586.462 98.3364Z"/>
<path clip-path="url(#TextBounds_5)" d="M593.267 95.061L588.728 95.061C588.728 95.81 588.945 96.4279 589.379 96.9145C589.813 97.4012 590.345 97.6445 590.976 97.6445C591.576 97.6445 592.196 97.5366 592.835 97.3208L593.007 98.1142C592.423 98.3766 591.741 98.5078 590.963 98.5078C589.981 98.5078 589.19 98.1925 588.589 97.562C587.988 96.9314 587.687 96.0808 587.687 95.0102C587.687 93.9607 587.957 93.1239 588.497 92.4997C589.036 91.8755 589.734 91.5634 590.588 91.5634C591.35 91.5634 591.987 91.8533 592.499 92.4331C593.011 93.0128 593.267 93.7851 593.267 94.75L593.267 95.061ZM592.188 94.2548C592.188 93.7386 592.027 93.3037 591.706 92.9504C591.384 92.597 591.024 92.4204 590.626 92.4204C590.114 92.4204 589.69 92.5896 589.354 92.9282C589.017 93.2667 588.83 93.7089 588.792 94.2548L592.188 94.2548Z"/>
<path clip-path="url(#TextBounds_5)" d="M601.17 91.7221L598.663 98.3364C598.299 99.3097 597.938 99.9889 597.58 100.374C597.223 100.759 596.815 100.952 596.358 100.952C595.952 100.952 595.55 100.878 595.152 100.729L595.317 99.936C595.639 100.038 595.927 100.088 596.181 100.088C596.536 100.088 596.828 99.9508 597.057 99.6757C597.285 99.4007 597.516 98.95 597.748 98.3237L595.267 91.7221L596.346 91.7221L598.218 96.997L600.091 91.7221L601.17 91.7221Z"/>
<path clip-path="url(#TextBounds_5)" d="M608.997 97.7016C608.264 98.2391 607.454 98.5078 606.565 98.5078C605.402 98.5078 604.519 98.1132 603.918 97.3239C603.318 96.5347 603.017 95.3805 603.017 93.8613C603.017 92.3929 603.308 91.2503 603.89 90.4335C604.472 89.6168 605.364 89.2085 606.565 89.2085C606.997 89.2085 607.424 89.2635 607.848 89.3735C608.271 89.4835 608.611 89.6295 608.87 89.8115L608.527 90.6303C607.93 90.2918 607.276 90.1225 606.565 90.1225C605.744 90.1225 605.132 90.423 604.728 91.0239C604.324 91.6248 604.122 92.5706 604.122 93.8613C604.122 96.3496 604.936 97.5937 606.565 97.5937C607.179 97.5937 607.642 97.4646 607.956 97.2065L607.956 94.9975L606.343 94.9975L606.343 94.0961L608.997 94.0961L608.997 97.7016Z"/>
<path clip-path="url(#TextBounds_5)" d="M616.671 95.061L612.132 95.061C612.132 95.81 612.349 96.4279 612.783 96.9145C613.217 97.4012 613.749 97.6445 614.379 97.6445C614.98 97.6445 615.6 97.5366 616.239 97.3208L616.411 98.1142C615.827 98.3766 615.145 98.5078 614.367 98.5078C613.385 98.5078 612.594 98.1925 611.993 97.562C611.392 96.9314 611.091 96.0808 611.091 95.0102C611.091 93.9607 611.361 93.1239 611.901 92.4997C612.44 91.8755 613.137 91.5634 613.992 91.5634C614.754 91.5634 615.391 91.8533 615.903 92.4331C616.415 93.0128 616.671 93.7851 616.671 94.75L616.671 95.061ZM615.592 94.2548C615.592 93.7386 615.431 93.3037 615.109 92.9504C614.788 92.597 614.428 92.4204 614.03 92.4204C613.518 92.4204 613.094 92.5896 612.758 92.9282C612.421 93.2667 612.234 93.7089 612.196 94.2548L615.592 94.2548Z"/>
<path clip-path="url(#TextBounds_5)" d="M624.275 98.3364L623.285 98.3364L623.285 94.0961C623.285 93.5079 623.191 93.0816 623.003 92.8171C622.814 92.5526 622.519 92.4204 622.117 92.4204C621.512 92.4204 620.862 92.797 620.168 93.5502L620.168 98.3364L619.178 98.3364L619.178 91.7221L620.168 91.7221L620.168 92.6933C620.879 91.9401 621.628 91.5634 622.415 91.5634C623.655 91.5634 624.275 92.3125 624.275 93.8105L624.275 98.3364Z"/>
<path clip-path="url(#TextBounds_5)" d="M632.191 90.1225L628.643 98.3364L627.576 98.3364L631.074 90.2876L626.878 90.2876L626.878 89.3798L632.191 89.3798L632.191 90.1225Z"/>
<path clip-path="url(#TextBounds_5)" d="M635.714 93.6709C636.272 93.2181 636.88 92.9917 637.536 92.9917C638.293 92.9917 638.925 93.2339 639.43 93.7185C639.936 94.203 640.189 94.8282 640.189 95.5942C640.189 96.4363 639.965 97.1324 639.516 97.6826C639.068 98.2327 638.469 98.5078 637.72 98.5078C636.763 98.5078 636.006 98.0687 635.447 97.1906C634.889 96.3125 634.609 95.2387 634.609 93.9692C634.609 92.615 634.9 91.483 635.482 90.5732C636.064 89.6634 636.861 89.2085 637.872 89.2085C638.57 89.2085 639.173 89.3121 639.681 89.5195L639.516 90.4462C638.928 90.2304 638.39 90.1225 637.904 90.1225C637.214 90.1225 636.677 90.4526 636.291 91.1127C635.906 91.7729 635.714 92.6256 635.714 93.6709ZM635.746 94.5659C635.746 95.3318 635.925 96.028 636.285 96.6543C636.645 97.2806 637.098 97.5937 637.644 97.5937C638.105 97.5937 638.46 97.4244 638.71 97.0859C638.96 96.7474 639.084 96.2797 639.084 95.6831C639.084 95.1329 638.947 94.6992 638.672 94.3818C638.397 94.0644 638.01 93.9057 637.51 93.9057C636.863 93.9057 636.275 94.1258 635.746 94.5659Z"/>
<path clip-path="url(#TextBounds_5)" d="M646.016 93.4233C646.625 93.601 647.098 93.9036 647.435 94.331C647.771 94.7584 647.939 95.2578 647.939 95.8291C647.939 96.65 647.668 97.3017 647.124 97.7841C646.58 98.2666 645.91 98.5078 645.115 98.5078C644.281 98.5078 643.597 98.2644 643.061 97.7778C642.526 97.2911 642.258 96.6458 642.258 95.8418C642.258 95.2747 642.432 94.7753 642.779 94.3437C643.126 93.9121 643.61 93.6053 644.232 93.4233C643.737 93.2963 643.341 93.052 643.042 92.6901C642.744 92.3283 642.595 91.9231 642.595 91.4746C642.595 90.899 642.823 90.3775 643.28 89.9099C643.737 89.4423 644.34 89.2085 645.089 89.2085C645.83 89.2085 646.442 89.4412 646.927 89.9067C647.411 90.3722 647.654 90.8948 647.654 91.4746C647.654 91.9104 647.501 92.3114 647.197 92.6774C646.892 93.0435 646.498 93.2921 646.016 93.4233ZM645.089 92.9917C645.11 92.9917 645.212 92.9663 645.394 92.9155C645.576 92.8647 645.731 92.8023 645.861 92.7282C645.99 92.6542 646.109 92.56 646.219 92.4458C646.329 92.3315 646.418 92.1971 646.486 92.0427C646.554 91.8882 646.587 91.7158 646.587 91.5253C646.587 91.1191 646.441 90.7816 646.149 90.5129C645.857 90.2442 645.504 90.1098 645.089 90.1098C644.687 90.1098 644.342 90.2474 644.055 90.5224C643.767 90.7975 643.623 91.1318 643.623 91.5253C643.623 91.775 643.675 91.993 643.779 92.1792C643.882 92.3654 644.011 92.5156 644.166 92.6298C644.32 92.7441 644.498 92.833 644.699 92.8964C644.9 92.9599 645.03 92.9917 645.089 92.9917ZM645.089 93.8803C643.93 94.2189 643.35 94.8558 643.35 95.791C643.35 96.3369 643.526 96.7738 643.877 97.1018C644.228 97.4297 644.641 97.5937 645.115 97.5937C645.606 97.5937 646.019 97.4318 646.356 97.1081C646.692 96.7844 646.86 96.3453 646.86 95.791C646.86 95.372 646.744 94.9965 646.511 94.6643C646.278 94.3321 645.804 94.0708 645.089 93.8803Z"/>
<path clip-path="url(#TextBounds_5)" d="M655.1 99.663L654.712 100.209C653.769 99.4938 653.049 98.6622 652.554 97.7143C652.059 96.7664 651.811 95.7656 651.811 94.7119C651.811 93.6497 652.057 92.6478 652.548 91.7063C653.039 90.7647 653.76 89.9363 654.712 89.2211L655.1 89.767C654.325 90.4611 653.768 91.1879 653.427 91.9475C653.086 92.7071 652.916 93.6243 652.916 94.6992C652.916 95.8121 653.093 96.7484 653.446 97.508C653.799 98.2676 654.351 98.986 655.1 99.663Z"/>
<path clip-path="url(#TextBounds_5)" d="M658.927 89.2211C659.875 89.9363 660.595 90.7647 661.085 91.7063C661.576 92.6478 661.822 93.6497 661.822 94.7119C661.822 95.7656 661.575 96.7664 661.082 97.7143C660.589 98.6622 659.871 99.4938 658.927 100.209L658.534 99.663C659.308 98.9775 659.866 98.2486 660.206 97.4763C660.547 96.704 660.717 95.7783 660.717 94.6992C660.717 93.5862 660.542 92.6552 660.19 91.9062C659.839 91.1572 659.287 90.4441 658.534 89.767L658.927 89.2211Z"/>
</g>
<g fill="#000000" opacity="1" stroke="none">
<path clip-path="url(#TextBounds_6)" d="M340.806 281.866L339.951 291.229C339.907 291.666 339.885 291.954 339.885 292.093C339.885 292.314 339.926 292.483 340.009 292.599C340.114 292.759 340.257 292.878 340.437 292.956C340.617 293.033 340.92 293.072 341.346 293.072L341.254 293.379L336.822 293.379L336.913 293.072L337.104 293.072C337.464 293.072 337.757 292.995 337.984 292.84C338.144 292.734 338.269 292.56 338.357 292.317C338.418 292.145 338.476 291.741 338.532 291.105L338.664 289.677L335.444 289.677L334.298 291.229C334.038 291.578 333.875 291.828 333.809 291.98C333.742 292.133 333.709 292.275 333.709 292.408C333.709 292.585 333.781 292.737 333.925 292.864C334.069 292.992 334.307 293.061 334.639 293.072L334.547 293.379L331.219 293.379L331.31 293.072C331.72 293.055 332.081 292.918 332.393 292.661C332.706 292.404 333.172 291.855 333.792 291.013L340.516 281.866L340.806 281.866ZM339.163 284.63L335.9 289.071L338.731 289.071L339.163 284.63Z"/>
<path clip-path="url(#TextBounds_6)" d="M347.936 282.729L346.65 287.178L347.704 287.178C348.457 287.178 349.002 287.064 349.339 286.834C349.677 286.604 349.967 286.18 350.211 285.56L350.518 285.56L349.364 289.644L349.032 289.644C349.132 289.301 349.182 289.007 349.182 288.764C349.182 288.526 349.133 288.335 349.036 288.191C348.939 288.047 348.807 287.941 348.638 287.872C348.469 287.802 348.114 287.768 347.571 287.768L346.5 287.768L345.413 291.495C345.308 291.855 345.255 292.128 345.255 292.317C345.255 292.461 345.324 292.588 345.463 292.698C345.557 292.776 345.792 292.815 346.168 292.815L347.164 292.815C348.244 292.815 349.108 292.624 349.758 292.242C350.409 291.86 350.991 291.196 351.506 290.25L351.813 290.25L350.75 293.379L342.051 293.379L342.159 293.072C342.591 293.061 342.881 293.022 343.031 292.956C343.252 292.856 343.413 292.729 343.512 292.574C343.662 292.347 343.839 291.871 344.043 291.146L346.019 284.356C346.174 283.808 346.251 283.391 346.251 283.103C346.251 282.892 346.178 282.728 346.031 282.609C345.885 282.49 345.598 282.43 345.172 282.43L344.998 282.43L345.098 282.123L353.183 282.123L352.485 284.838L352.178 284.838C352.217 284.583 352.236 284.37 352.236 284.198C352.236 283.905 352.164 283.659 352.02 283.46C351.832 283.205 351.558 283.011 351.199 282.879C350.933 282.779 350.322 282.729 349.364 282.729L347.936 282.729Z"/>
<path clip-path="url(#TextBounds_6)" d="M361.575 281.866L360.72 291.229C360.675 291.666 360.653 291.954 360.653 292.093C360.653 292.314 360.695 292.483 360.778 292.599C360.883 292.759 361.025 292.878 361.205 292.956C361.385 293.033 361.688 293.072 362.114 293.072L362.023 293.379L357.59 293.379L357.682 293.072L357.872 293.072C358.232 293.072 358.525 292.995 358.752 292.84C358.913 292.734 359.037 292.56 359.126 292.317C359.187 292.145 359.245 291.741 359.3 291.105L359.433 289.677L356.212 289.677L355.067 291.229C354.807 291.578 354.643 291.828 354.577 291.98C354.511 292.133 354.477 292.275 354.477 292.408C354.477 292.585 354.549 292.737 354.693 292.864C354.837 292.992 355.075 293.061 355.407 293.072L355.316 293.379L351.987 293.379L352.079 293.072C352.488 293.055 352.849 292.918 353.162 292.661C353.474 292.404 353.941 291.855 354.56 291.013L361.284 281.866L361.575 281.866ZM359.931 284.63L356.669 289.071L359.499 289.071L359.931 284.63Z"/>
<path clip-path="url(#TextBounds_6)" d="M365.692 282.43L365.791 282.123L369.386 282.123C370.907 282.123 372.035 282.298 372.768 282.646C373.501 282.995 374.087 283.544 374.524 284.294C374.961 285.044 375.18 285.848 375.18 286.705C375.18 287.441 375.054 288.157 374.802 288.851C374.55 289.546 374.265 290.102 373.947 290.52C373.629 290.937 373.14 291.398 372.482 291.902C371.823 292.405 371.109 292.777 370.34 293.018C369.571 293.259 368.611 293.379 367.46 293.379L362.695 293.379L362.803 293.072C363.24 293.061 363.534 293.022 363.683 292.956C363.904 292.862 364.068 292.734 364.173 292.574C364.333 292.342 364.513 291.874 364.712 291.171L366.705 284.364C366.859 283.828 366.937 283.407 366.937 283.103C366.937 282.887 366.865 282.721 366.721 282.605C366.577 282.489 366.295 282.43 365.874 282.43L365.692 282.43ZM368.639 282.746L366.198 291.171C366.016 291.802 365.924 292.192 365.924 292.342C365.924 292.43 365.953 292.516 366.011 292.599C366.07 292.682 366.148 292.737 366.248 292.765C366.392 292.815 366.624 292.84 366.945 292.84C367.814 292.84 368.621 292.75 369.365 292.57C370.109 292.39 370.719 292.123 371.195 291.769C371.87 291.254 372.41 290.546 372.814 289.644C373.218 288.742 373.42 287.715 373.42 286.564C373.42 285.264 373.11 284.297 372.49 283.663C371.87 283.029 370.966 282.713 369.776 282.713C369.483 282.713 369.103 282.724 368.639 282.746Z"/>
</g>
<g fill="#000000" opacity="1" stroke="none">
<path clip-path="url(#TextBounds_7)" d="M24.055 160.096L22.7537 160.096L19.948 156.808L19.3006 157.366L19.3006 160.096L18.3103 160.096L18.3103 151.139L19.3006 151.139L19.3006 156.274L22.4046 153.481L23.6678 153.481L20.6526 156.186L24.055 160.096Z"/>
<path clip-path="url(#TextBounds_7)" d="M31.5071 153.481L28.9998 160.096C28.6359 161.069 28.2751 161.748 27.9175 162.133C27.5599 162.518 27.1526 162.711 26.6956 162.711C26.2893 162.711 25.8873 162.637 25.4895 162.489L25.6546 161.695C25.9762 161.797 26.264 161.848 26.5179 161.848C26.8733 161.848 27.1653 161.71 27.3938 161.435C27.6224 161.16 27.853 160.709 28.0857 160.083L25.6038 153.481L26.6829 153.481L28.5555 158.756L30.428 153.481L31.5071 153.481Z"/>
<path clip-path="url(#TextBounds_7)" d="M34.9031 154.338C35.1232 154.034 35.4205 153.788 35.795 153.602C36.1695 153.416 36.5641 153.323 36.9788 153.323C37.749 153.323 38.3488 153.632 38.7784 154.249C39.2079 154.867 39.4226 155.68 39.4226 156.687C39.4226 157.707 39.1941 158.558 38.7371 159.242C38.2801 159.925 37.6686 160.267 36.9026 160.267C36.4921 160.267 36.1081 160.164 35.7505 159.959C35.3929 159.754 35.1105 159.482 34.9031 159.144L34.9031 160.096L33.9129 160.096L33.9129 151.139L34.9031 151.139L34.9031 154.338ZM34.9031 155.322L34.9031 158.071C35.0893 158.443 35.3411 158.754 35.6585 159.004C35.9759 159.254 36.3038 159.378 36.6424 159.378C37.1756 159.378 37.5998 159.124 37.9151 158.617C38.2303 158.109 38.388 157.485 38.388 156.744C38.388 155.982 38.2378 155.365 37.9373 154.891C37.6368 154.417 37.2179 154.18 36.6805 154.18C35.9822 154.18 35.3898 154.561 34.9031 155.322Z"/>
<path clip-path="url(#TextBounds_7)" d="M47.0081 156.82L42.4695 156.82C42.4695 157.569 42.6864 158.187 43.1202 158.674C43.5539 159.16 44.0861 159.404 44.7166 159.404C45.3175 159.404 45.9375 159.296 46.5765 159.08L46.7478 159.874C46.1639 160.136 45.4825 160.267 44.7039 160.267C43.7221 160.267 42.9308 159.952 42.3299 159.321C41.729 158.691 41.4285 157.84 41.4285 156.769C41.4285 155.72 41.6983 154.883 42.2378 154.259C42.7774 153.635 43.4746 153.323 44.3294 153.323C45.0911 153.323 45.728 153.613 46.24 154.192C46.7521 154.772 47.0081 155.544 47.0081 156.509L47.0081 156.82ZM45.929 156.014C45.929 155.498 45.7682 155.063 45.4466 154.71C45.125 154.356 44.7653 154.18 44.3675 154.18C43.8554 154.18 43.4312 154.349 43.0948 154.687C42.7583 155.026 42.5711 155.468 42.533 156.014L45.929 156.014Z"/>
<path clip-path="url(#TextBounds_7)" d="M54.7142 153.659L54.3142 154.611C53.8784 154.421 53.5017 154.326 53.1844 154.326C52.8924 154.326 52.6067 154.409 52.3274 154.576C52.0481 154.744 51.7911 154.983 51.5562 155.294C51.3213 155.605 51.2039 155.779 51.2039 155.817L51.2039 160.096L50.22 160.096L50.22 153.481L51.2039 153.481L51.2039 154.821C51.7329 153.822 52.4184 153.323 53.2605 153.323C53.7599 153.323 54.2444 153.435 54.7142 153.659Z"/>
<path clip-path="url(#TextBounds_7)" d="M59.8113 158.642C60.0356 158.642 60.2239 158.718 60.3763 158.871C60.5286 159.023 60.6048 159.211 60.6048 159.436C60.6048 159.664 60.5275 159.86 60.3731 160.023C60.2186 160.186 60.0314 160.267 59.8113 160.267C59.5955 160.267 59.4114 160.186 59.2591 160.023C59.1067 159.86 59.0306 159.664 59.0306 159.436C59.0306 159.207 59.1057 159.018 59.2559 158.867C59.4061 158.717 59.5913 158.642 59.8113 158.642Z"/>
<path clip-path="url(#TextBounds_7)" d="M70.0564 160.096L65.3782 160.096L65.3782 151.139L70.0184 151.139L70.0184 152.047L66.4192 152.047L66.4192 154.821L69.8787 154.821L69.8787 155.728L66.4192 155.728L66.4192 159.188L70.0564 159.188L70.0564 160.096Z"/>
<path clip-path="url(#TextBounds_7)" d="M78.0164 160.096L77.0262 160.096L77.0262 155.855C77.0262 155.267 76.932 154.841 76.7437 154.576C76.5554 154.312 76.2602 154.18 75.8582 154.18C75.2531 154.18 74.6035 154.556 73.9095 155.31L73.9095 160.096L72.9192 160.096L72.9192 153.481L73.9095 153.481L73.9095 154.453C74.6204 153.699 75.3694 153.323 76.1565 153.323C77.3964 153.323 78.0164 154.072 78.0164 155.57L78.0164 160.096Z"/>
<path clip-path="url(#TextBounds_7)" d="M85.7923 159.874C85.2168 160.136 84.5841 160.267 83.8943 160.267C82.8533 160.267 82.0228 159.951 81.4029 159.318C80.7829 158.685 80.4729 157.844 80.4729 156.795C80.4729 155.745 80.785 154.904 81.4092 154.272C82.0334 153.639 82.8533 153.323 83.8689 153.323C84.5333 153.323 85.166 153.439 85.7669 153.672L85.5066 154.491C84.9057 154.283 84.3641 154.18 83.8816 154.18C83.1538 154.18 82.5772 154.415 82.1519 154.884C81.7266 155.354 81.514 155.991 81.514 156.795C81.514 157.531 81.734 158.15 82.1741 158.652C82.6142 159.153 83.1876 159.404 83.8943 159.404C84.4529 159.404 85.0284 159.296 85.6209 159.08L85.7923 159.874Z"/>
<path clip-path="url(#TextBounds_7)" d="M93.7205 153.659L93.3206 154.611C92.8847 154.421 92.5081 154.326 92.1907 154.326C91.8987 154.326 91.6131 154.409 91.3338 154.576C91.0545 154.744 90.7974 154.983 90.5625 155.294C90.3277 155.605 90.2102 155.779 90.2102 155.817L90.2102 160.096L89.2264 160.096L89.2264 153.481L90.2102 153.481L90.2102 154.821C90.7392 153.822 91.4248 153.323 92.2669 153.323C92.7662 153.323 93.2508 153.435 93.7205 153.659Z"/>
<path clip-path="url(#TextBounds_7)" d="M101.719 153.481L99.2112 160.096C98.8473 161.069 98.4865 161.748 98.1289 162.133C97.7714 162.518 97.3641 162.711 96.907 162.711C96.5008 162.711 96.0988 162.637 95.701 162.489L95.866 161.695C96.1876 161.797 96.4754 161.848 96.7293 161.848C97.0848 161.848 97.3767 161.71 97.6053 161.435C97.8338 161.16 98.0644 160.709 98.2972 160.083L95.8152 153.481L96.8943 153.481L98.7669 158.756L100.639 153.481L101.719 153.481Z"/>
<path clip-path="url(#TextBounds_7)" d="M105.115 154.338C105.335 154.034 105.632 153.788 106.006 153.602C106.381 153.416 106.776 153.323 107.19 153.323C107.952 153.323 108.55 153.637 108.983 154.265C109.417 154.894 109.634 155.712 109.634 156.719C109.634 157.734 109.407 158.58 108.952 159.255C108.497 159.93 107.884 160.267 107.114 160.267C106.704 160.267 106.32 160.164 105.962 159.959C105.604 159.754 105.322 159.482 105.115 159.144L105.115 162.711L104.124 162.711L104.124 153.481L105.115 153.481L105.115 154.338ZM105.115 155.322L105.115 158.071C105.301 158.443 105.553 158.754 105.87 159.004C106.187 159.254 106.515 159.378 106.854 159.378C107.387 159.378 107.811 159.129 108.127 158.629C108.442 158.13 108.599 157.51 108.599 156.769C108.599 156.008 108.449 155.386 108.149 154.903C107.848 154.421 107.429 154.18 106.892 154.18C106.194 154.18 105.601 154.561 105.115 155.322Z"/>
<path clip-path="url(#TextBounds_7)" d="M117.086 159.797C116.422 160.102 115.768 160.254 115.125 160.254C113.944 160.254 113.354 159.63 113.354 158.382L113.354 154.338L112.084 154.338L112.084 153.481L113.354 153.481L113.354 151.672L114.319 151.672L114.319 153.481L116.566 153.481L116.566 154.338L114.319 154.338L114.319 158.122C114.319 158.524 114.408 158.836 114.585 159.058C114.763 159.28 115.004 159.391 115.309 159.391C115.851 159.391 116.386 159.27 116.915 159.029L117.086 159.797Z"/>
<path clip-path="url(#TextBounds_7)" d="M124.938 151.882L121.39 160.096L120.324 160.096L123.821 152.047L119.625 152.047L119.625 151.139L124.938 151.139L124.938 151.882Z"/>
<path clip-path="url(#TextBounds_7)" d="M128.461 155.43C129.02 154.977 129.627 154.751 130.283 154.751C131.04 154.751 131.672 154.993 132.178 155.478C132.683 155.962 132.936 156.588 132.936 157.353C132.936 158.196 132.712 158.892 132.263 159.442C131.815 159.992 131.216 160.267 130.467 160.267C129.511 160.267 128.753 159.828 128.195 158.95C127.636 158.072 127.357 156.998 127.357 155.728C127.357 154.374 127.648 153.242 128.23 152.332C128.811 151.423 129.608 150.968 130.619 150.968C131.318 150.968 131.921 151.071 132.429 151.279L132.263 152.206C131.675 151.99 131.138 151.882 130.651 151.882C129.961 151.882 129.424 152.212 129.039 152.872C128.654 153.532 128.461 154.385 128.461 155.43ZM128.493 156.325C128.493 157.091 128.673 157.787 129.033 158.414C129.392 159.04 129.845 159.353 130.391 159.353C130.852 159.353 131.208 159.184 131.457 158.845C131.707 158.507 131.832 158.039 131.832 157.442C131.832 156.892 131.694 156.458 131.419 156.141C131.144 155.824 130.757 155.665 130.258 155.665C129.61 155.665 129.022 155.885 128.493 156.325Z"/>
<path clip-path="url(#TextBounds_7)" d="M138.763 155.183C139.373 155.36 139.846 155.663 140.182 156.09C140.519 156.518 140.687 157.017 140.687 157.588C140.687 158.409 140.415 159.061 139.871 159.543C139.327 160.026 138.658 160.267 137.862 160.267C137.028 160.267 136.344 160.024 135.809 159.537C135.273 159.05 135.006 158.405 135.006 157.601C135.006 157.034 135.179 156.535 135.526 156.103C135.873 155.671 136.358 155.365 136.98 155.183C136.485 155.056 136.088 154.811 135.79 154.449C135.491 154.088 135.342 153.682 135.342 153.234C135.342 152.658 135.571 152.137 136.028 151.669C136.485 151.202 137.088 150.968 137.837 150.968C138.577 150.968 139.19 151.2 139.674 151.666C140.159 152.131 140.401 152.654 140.401 153.234C140.401 153.67 140.249 154.071 139.944 154.437C139.639 154.803 139.246 155.051 138.763 155.183ZM137.837 154.751C137.858 154.751 137.959 154.726 138.141 154.675C138.323 154.624 138.479 154.562 138.608 154.488C138.737 154.413 138.857 154.319 138.967 154.205C139.077 154.091 139.165 153.956 139.233 153.802C139.301 153.648 139.335 153.475 139.335 153.285C139.335 152.878 139.189 152.541 138.897 152.272C138.605 152.003 138.251 151.869 137.837 151.869C137.435 151.869 137.09 152.007 136.802 152.282C136.514 152.557 136.37 152.891 136.37 153.285C136.37 153.534 136.422 153.752 136.526 153.938C136.63 154.125 136.759 154.275 136.913 154.389C137.068 154.503 137.245 154.592 137.446 154.656C137.647 154.719 137.777 154.751 137.837 154.751ZM137.837 155.64C136.677 155.978 136.097 156.615 136.097 157.55C136.097 158.096 136.273 158.533 136.624 158.861C136.976 159.189 137.388 159.353 137.862 159.353C138.353 159.353 138.767 159.191 139.103 158.867C139.439 158.544 139.608 158.105 139.608 157.55C139.608 157.131 139.491 156.756 139.259 156.424C139.026 156.091 138.552 155.83 137.837 155.64Z"/>
<path clip-path="url(#TextBounds_7)" d="M147.847 161.422L147.46 161.968C146.516 161.253 145.797 160.422 145.302 159.474C144.806 158.526 144.559 157.525 144.559 156.471C144.559 155.409 144.804 154.407 145.295 153.466C145.786 152.524 146.508 151.696 147.46 150.98L147.847 151.526C147.073 152.22 146.515 152.947 146.174 153.707C145.834 154.466 145.663 155.384 145.663 156.458C145.663 157.571 145.84 158.508 146.193 159.267C146.547 160.027 147.098 160.745 147.847 161.422Z"/>
<path clip-path="url(#TextBounds_7)" d="M151.922 154.338C152.142 154.034 152.439 153.788 152.814 153.602C153.189 153.416 153.583 153.323 153.998 153.323C154.76 153.323 155.357 153.637 155.791 154.265C156.225 154.894 156.442 155.712 156.442 156.719C156.442 157.734 156.214 158.58 155.759 159.255C155.304 159.93 154.692 160.267 153.922 160.267C153.511 160.267 153.127 160.164 152.77 159.959C152.412 159.754 152.13 159.482 151.922 159.144L151.922 162.711L150.932 162.711L150.932 153.481L151.922 153.481L151.922 154.338ZM151.922 155.322L151.922 158.071C152.108 158.443 152.36 158.754 152.678 159.004C152.995 159.254 153.323 159.378 153.661 159.378C154.195 159.378 154.619 159.129 154.934 158.629C155.249 158.13 155.407 157.51 155.407 156.769C155.407 156.008 155.257 155.386 154.956 154.903C154.656 154.421 154.237 154.18 153.7 154.18C153.001 154.18 152.409 154.561 151.922 155.322Z"/>
<path clip-path="url(#TextBounds_7)" d="M164.478 160.096L163.177 160.096L160.371 156.808L159.723 157.366L159.723 160.096L158.733 160.096L158.733 151.139L159.723 151.139L159.723 156.274L162.827 153.481L164.091 153.481L161.075 156.186L164.478 160.096Z"/>
<path clip-path="url(#TextBounds_7)" d="M167.277 150.98C168.225 151.696 168.944 152.524 169.435 153.466C169.926 154.407 170.172 155.409 170.172 156.471C170.172 157.525 169.925 158.526 169.432 159.474C168.939 160.422 168.221 161.253 167.277 161.968L166.884 161.422C167.658 160.737 168.216 160.008 168.556 159.236C168.897 158.463 169.067 157.538 169.067 156.458C169.067 155.346 168.892 154.415 168.54 153.665C168.189 152.916 167.637 152.203 166.884 151.526L167.277 150.98Z"/>
</g>
<g fill="#000000" opacity="1" stroke="none">
<path clip-path="url(#TextBounds_8)" d="M539.193 244.34L537.892 244.34L535.086 241.052L534.439 241.61L534.439 244.34L533.448 244.34L533.448 235.383L534.439 235.383L534.439 240.519L537.543 237.726L538.806 237.726L535.791 240.43L539.193 244.34Z"/>
<path clip-path="url(#TextBounds_8)" d="M546.645 237.726L544.138 244.34C543.774 245.313 543.413 245.992 543.056 246.377C542.698 246.763 542.291 246.955 541.834 246.955C541.427 246.955 541.025 246.881 540.628 246.733L540.793 245.939C541.114 246.041 541.402 246.092 541.656 246.092C542.011 246.092 542.303 245.954 542.532 245.679C542.76 245.404 542.991 244.953 543.224 244.327L540.742 237.726L541.821 237.726L543.694 243.001L545.566 237.726L546.645 237.726Z"/>
<path clip-path="url(#TextBounds_8)" d="M550.041 238.583C550.261 238.278 550.559 238.032 550.933 237.846C551.308 237.66 551.702 237.567 552.117 237.567C552.887 237.567 553.487 237.876 553.916 238.494C554.346 239.112 554.561 239.924 554.561 240.931C554.561 241.951 554.332 242.803 553.875 243.486C553.418 244.17 552.807 244.511 552.041 244.511C551.63 244.511 551.246 244.409 550.889 244.203C550.531 243.998 550.249 243.726 550.041 243.388L550.041 244.34L549.051 244.34L549.051 235.383L550.041 235.383L550.041 238.583ZM550.041 239.566L550.041 242.315C550.227 242.687 550.479 242.998 550.797 243.248C551.114 243.498 551.442 243.623 551.78 243.623C552.314 243.623 552.738 243.369 553.053 242.861C553.368 242.353 553.526 241.729 553.526 240.988C553.526 240.227 553.376 239.609 553.075 239.135C552.775 238.661 552.356 238.424 551.819 238.424C551.12 238.424 550.528 238.805 550.041 239.566Z"/>
<path clip-path="url(#TextBounds_8)" d="M562.146 241.064L557.608 241.064C557.608 241.813 557.825 242.431 558.258 242.918C558.692 243.405 559.224 243.648 559.855 243.648C560.456 243.648 561.076 243.54 561.715 243.324L561.886 244.118C561.302 244.38 560.621 244.511 559.842 244.511C558.86 244.511 558.069 244.196 557.468 243.565C556.867 242.935 556.567 242.084 556.567 241.014C556.567 239.964 556.836 239.127 557.376 238.503C557.916 237.879 558.613 237.567 559.468 237.567C560.229 237.567 560.866 237.857 561.378 238.437C561.89 239.016 562.146 239.789 562.146 240.753L562.146 241.064ZM561.067 240.258C561.067 239.742 560.906 239.307 560.585 238.954C560.263 238.601 559.903 238.424 559.506 238.424C558.994 238.424 558.569 238.593 558.233 238.932C557.896 239.27 557.709 239.712 557.671 240.258L561.067 240.258Z"/>
<path clip-path="url(#TextBounds_8)" d="M569.852 237.903L569.452 238.855C569.016 238.665 568.64 238.57 568.322 238.57C568.03 238.57 567.745 238.653 567.466 238.821C567.186 238.988 566.929 239.227 566.694 239.538C566.459 239.849 566.342 240.023 566.342 240.062L566.342 244.34L565.358 244.34L565.358 237.726L566.342 237.726L566.342 239.065C566.871 238.066 567.557 237.567 568.399 237.567C568.898 237.567 569.383 237.679 569.852 237.903Z"/>
<path clip-path="url(#TextBounds_8)" d="M574.949 242.886C575.174 242.886 575.362 242.962 575.514 243.115C575.667 243.267 575.743 243.455 575.743 243.68C575.743 243.908 575.666 244.104 575.511 244.267C575.357 244.43 575.169 244.511 574.949 244.511C574.734 244.511 574.55 244.43 574.397 244.267C574.245 244.104 574.169 243.908 574.169 243.68C574.169 243.451 574.244 243.262 574.394 243.112C574.544 242.961 574.729 242.886 574.949 242.886Z"/>
<path clip-path="url(#TextBounds_8)" d="M580.218 235.383L581.983 235.383C583.155 235.383 584.094 235.782 584.801 236.58C585.508 237.378 585.861 238.473 585.861 239.865C585.861 241.287 585.502 242.388 584.785 243.169C584.068 243.949 583.148 244.34 582.027 244.34L580.218 244.34L580.218 235.383ZM581.259 243.432L581.995 243.432C582.846 243.432 583.519 243.117 584.014 242.486C584.509 241.856 584.757 240.982 584.757 239.865C584.757 238.756 584.508 237.883 584.011 237.246C583.513 236.609 582.842 236.291 581.995 236.291L581.259 236.291L581.259 243.432Z"/>
<path clip-path="url(#TextBounds_8)" d="M593.351 241.064L588.813 241.064C588.813 241.813 589.03 242.431 589.463 242.918C589.897 243.405 590.429 243.648 591.06 243.648C591.661 243.648 592.281 243.54 592.92 243.324L593.091 244.118C592.507 244.38 591.826 244.511 591.047 244.511C590.065 244.511 589.274 244.196 588.673 243.565C588.072 242.935 587.772 242.084 587.772 241.014C587.772 239.964 588.041 239.127 588.581 238.503C589.121 237.879 589.818 237.567 590.673 237.567C591.434 237.567 592.071 237.857 592.583 238.437C593.095 239.016 593.351 239.789 593.351 240.753L593.351 241.064ZM592.272 240.258C592.272 239.742 592.111 239.307 591.79 238.954C591.468 238.601 591.108 238.424 590.711 238.424C590.199 238.424 589.774 238.593 589.438 238.932C589.102 239.27 588.914 239.712 588.876 240.258L592.272 240.258Z"/>
<path clip-path="url(#TextBounds_8)" d="M600.93 244.118C600.355 244.38 599.722 244.511 599.032 244.511C597.991 244.511 597.161 244.195 596.541 243.562C595.921 242.93 595.611 242.089 595.611 241.039C595.611 239.99 595.923 239.149 596.547 238.516C597.172 237.883 597.991 237.567 599.007 237.567C599.671 237.567 600.304 237.683 600.905 237.916L600.645 238.735C600.044 238.528 599.502 238.424 599.02 238.424C598.292 238.424 597.715 238.659 597.29 239.128C596.865 239.598 596.652 240.235 596.652 241.039C596.652 241.775 596.872 242.394 597.312 242.896C597.752 243.397 598.326 243.648 599.032 243.648C599.591 243.648 600.167 243.54 600.759 243.324L600.93 244.118Z"/>
<path clip-path="url(#TextBounds_8)" d="M608.859 237.903L608.459 238.855C608.023 238.665 607.646 238.57 607.329 238.57C607.037 238.57 606.751 238.653 606.472 238.821C606.193 238.988 605.936 239.227 605.701 239.538C605.466 239.849 605.348 240.023 605.348 240.062L605.348 244.34L604.364 244.34L604.364 237.726L605.348 237.726L605.348 239.065C605.877 238.066 606.563 237.567 607.405 237.567C607.904 237.567 608.389 237.679 608.859 237.903Z"/>
<path clip-path="url(#TextBounds_8)" d="M616.857 237.726L614.349 244.34C613.985 245.313 613.625 245.992 613.267 246.377C612.909 246.763 612.502 246.955 612.045 246.955C611.639 246.955 611.237 246.881 610.839 246.733L611.004 245.939C611.326 246.041 611.614 246.092 611.867 246.092C612.223 246.092 612.515 245.954 612.743 245.679C612.972 245.404 613.203 244.953 613.435 244.327L610.953 237.726L612.032 237.726L613.905 243.001L615.778 237.726L616.857 237.726Z"/>
<path clip-path="url(#TextBounds_8)" d="M620.253 238.583C620.473 238.278 620.77 238.032 621.145 237.846C621.519 237.66 621.914 237.567 622.328 237.567C623.09 237.567 623.688 237.881 624.122 238.51C624.555 239.138 624.772 239.956 624.772 240.963C624.772 241.979 624.545 242.824 624.09 243.499C623.635 244.174 623.022 244.511 622.252 244.511C621.842 244.511 621.458 244.409 621.1 244.203C620.742 243.998 620.46 243.726 620.253 243.388L620.253 246.955L619.262 246.955L619.262 237.726L620.253 237.726L620.253 238.583ZM620.253 239.566L620.253 242.315C620.439 242.687 620.691 242.998 621.008 243.248C621.325 243.498 621.653 243.623 621.992 243.623C622.525 243.623 622.949 243.373 623.265 242.874C623.58 242.374 623.738 241.754 623.738 241.014C623.738 240.252 623.587 239.63 623.287 239.147C622.986 238.665 622.567 238.424 622.03 238.424C621.332 238.424 620.739 238.805 620.253 239.566Z"/>
<path clip-path="url(#TextBounds_8)" d="M632.224 244.042C631.56 244.346 630.906 244.499 630.263 244.499C629.082 244.499 628.492 243.874 628.492 242.626L628.492 238.583L627.222 238.583L627.222 237.726L628.492 237.726L628.492 235.917L629.457 235.917L629.457 237.726L631.704 237.726L631.704 238.583L629.457 238.583L629.457 242.366C629.457 242.768 629.546 243.08 629.723 243.302C629.901 243.524 630.142 243.635 630.447 243.635C630.989 243.635 631.524 243.515 632.053 243.273L632.224 244.042Z"/>
<path clip-path="url(#TextBounds_8)" d="M640.076 236.126L636.528 244.34L635.462 244.34L638.959 236.291L634.763 236.291L634.763 235.383L640.076 235.383L640.076 236.126Z"/>
<path clip-path="url(#TextBounds_8)" d="M643.599 239.674C644.158 239.222 644.765 238.995 645.421 238.995C646.179 238.995 646.81 239.237 647.316 239.722C647.822 240.206 648.074 240.832 648.074 241.598C648.074 242.44 647.85 243.136 647.402 243.686C646.953 244.236 646.354 244.511 645.605 244.511C644.649 244.511 643.891 244.072 643.333 243.194C642.774 242.316 642.495 241.242 642.495 239.973C642.495 238.619 642.786 237.487 643.368 236.577C643.95 235.667 644.746 235.212 645.758 235.212C646.456 235.212 647.059 235.316 647.567 235.523L647.402 236.45C646.813 236.234 646.276 236.126 645.789 236.126C645.1 236.126 644.562 236.456 644.177 237.116C643.792 237.776 643.599 238.629 643.599 239.674ZM643.631 240.569C643.631 241.335 643.811 242.031 644.171 242.658C644.53 243.284 644.983 243.597 645.529 243.597C645.99 243.597 646.346 243.428 646.595 243.089C646.845 242.751 646.97 242.283 646.97 241.687C646.97 241.136 646.832 240.703 646.557 240.385C646.282 240.068 645.895 239.909 645.396 239.909C644.748 239.909 644.16 240.129 643.631 240.569Z"/>
<path clip-path="url(#TextBounds_8)" d="M653.902 239.427C654.511 239.605 654.984 239.907 655.32 240.334C655.657 240.762 655.825 241.261 655.825 241.833C655.825 242.653 655.553 243.305 655.009 243.788C654.465 244.27 653.796 244.511 653 244.511C652.167 244.511 651.482 244.268 650.947 243.781C650.411 243.295 650.144 242.649 650.144 241.845C650.144 241.278 650.317 240.779 650.664 240.347C651.011 239.916 651.496 239.609 652.118 239.427C651.623 239.3 651.226 239.055 650.928 238.694C650.629 238.332 650.48 237.927 650.48 237.478C650.48 236.903 650.709 236.381 651.166 235.913C651.623 235.446 652.226 235.212 652.975 235.212C653.715 235.212 654.328 235.445 654.812 235.91C655.297 236.376 655.539 236.898 655.539 237.478C655.539 237.914 655.387 238.315 655.082 238.681C654.778 239.047 654.384 239.296 653.902 239.427ZM652.975 238.995C652.996 238.995 653.098 238.97 653.28 238.919C653.461 238.868 653.617 238.806 653.746 238.732C653.875 238.658 653.995 238.563 654.105 238.449C654.215 238.335 654.304 238.201 654.371 238.046C654.439 237.892 654.473 237.719 654.473 237.529C654.473 237.123 654.327 236.785 654.035 236.516C653.743 236.248 653.39 236.113 652.975 236.113C652.573 236.113 652.228 236.251 651.94 236.526C651.652 236.801 651.509 237.135 651.509 237.529C651.509 237.778 651.56 237.996 651.664 238.183C651.768 238.369 651.897 238.519 652.051 238.633C652.206 238.748 652.383 238.836 652.584 238.9C652.785 238.963 652.916 238.995 652.975 238.995ZM652.975 239.884C651.815 240.222 651.236 240.859 651.236 241.794C651.236 242.34 651.411 242.777 651.762 243.105C652.114 243.433 652.526 243.597 653 243.597C653.491 243.597 653.905 243.435 654.241 243.112C654.578 242.788 654.746 242.349 654.746 241.794C654.746 241.376 654.629 241 654.397 240.668C654.164 240.336 653.69 240.074 652.975 239.884Z"/>
<path clip-path="url(#TextBounds_8)" d="M662.985 245.667L662.598 246.212C661.654 245.497 660.935 244.666 660.44 243.718C659.945 242.77 659.697 241.769 659.697 240.715C659.697 239.653 659.942 238.651 660.433 237.71C660.924 236.768 661.646 235.94 662.598 235.225L662.985 235.771C662.211 236.465 661.653 237.191 661.312 237.951C660.972 238.711 660.801 239.628 660.801 240.703C660.801 241.816 660.978 242.752 661.332 243.511C661.685 244.271 662.236 244.989 662.985 245.667Z"/>
<path clip-path="url(#TextBounds_8)" d="M671.142 244.118C670.566 244.38 669.934 244.511 669.244 244.511C668.203 244.511 667.372 244.195 666.752 243.562C666.132 242.93 665.822 242.089 665.822 241.039C665.822 239.99 666.135 239.149 666.759 238.516C667.383 237.883 668.203 237.567 669.218 237.567C669.883 237.567 670.516 237.683 671.116 237.916L670.856 238.735C670.255 238.528 669.714 238.424 669.231 238.424C668.503 238.424 667.927 238.659 667.501 239.128C667.076 239.598 666.864 240.235 666.864 241.039C666.864 241.775 667.084 242.394 667.524 242.896C667.964 243.397 668.537 243.648 669.244 243.648C669.802 243.648 670.378 243.54 670.97 243.324L671.142 244.118Z"/>
<path clip-path="url(#TextBounds_8)" d="M676.417 244.511C676.197 244.486 676.015 244.395 675.871 244.238C675.727 244.082 675.655 243.904 675.655 243.705C675.655 243.489 675.725 243.307 675.864 243.159C676.004 243.011 676.18 242.937 676.391 242.937C676.628 242.937 676.834 243.033 677.007 243.226C677.181 243.418 677.267 243.65 677.267 243.921C677.267 244.75 676.806 245.398 675.884 245.863L675.642 245.406C676.159 245.152 676.417 244.854 676.417 244.511Z"/>
<path clip-path="url(#TextBounds_8)" d="M686.078 238.671C685.523 238.489 685.001 238.398 684.51 238.398C683.973 238.398 683.547 238.488 683.234 238.668C682.921 238.848 682.764 239.088 682.764 239.389C682.764 239.579 682.836 239.745 682.98 239.887C683.124 240.029 683.412 240.161 683.843 240.284L684.789 240.557C685.225 240.679 685.581 240.826 685.856 240.998C686.131 241.169 686.337 241.377 686.475 241.62C686.612 241.863 686.681 242.146 686.681 242.467C686.681 243.098 686.416 243.596 685.887 243.962C685.358 244.328 684.686 244.511 683.869 244.511C683.056 244.511 682.386 244.389 681.857 244.143L682.047 243.286C682.601 243.549 683.196 243.68 683.831 243.68C684.381 243.68 684.828 243.577 685.173 243.372C685.518 243.167 685.691 242.895 685.691 242.556C685.691 242.328 685.605 242.123 685.434 241.944C685.262 241.764 684.859 241.577 684.224 241.382C683.712 241.225 683.336 241.108 683.094 241.03C682.853 240.951 682.629 240.836 682.422 240.684C682.214 240.531 682.057 240.349 681.949 240.138C681.841 239.926 681.787 239.689 681.787 239.427C681.787 238.855 682.037 238.403 682.536 238.068C683.035 237.734 683.697 237.567 684.523 237.567C685.056 237.567 685.648 237.658 686.3 237.84L686.078 238.671Z"/>
<path clip-path="url(#TextBounds_8)" d="M695.218 244.34L693.917 244.34L691.112 241.052L690.464 241.61L690.464 244.34L689.474 244.34L689.474 235.383L690.464 235.383L690.464 240.519L693.568 237.726L694.831 237.726L691.816 240.43L695.218 244.34Z"/>
<path clip-path="url(#TextBounds_8)" d="M698.018 235.225C698.966 235.94 699.685 236.768 700.176 237.71C700.667 238.651 700.912 239.653 700.912 240.715C700.912 241.769 700.666 242.77 700.173 243.718C699.68 244.666 698.961 245.497 698.018 246.212L697.624 245.667C698.399 244.981 698.956 244.252 699.297 243.48C699.638 242.707 699.808 241.782 699.808 240.703C699.808 239.59 699.632 238.659 699.281 237.91C698.93 237.161 698.378 236.448 697.624 235.771L698.018 235.225Z"/>
</g>
<g fill="#000000" opacity="1" stroke="none">
<path clip-path="url(#TextBounds_9)" d="M600.922 295.502C600.368 295.32 599.845 295.229 599.354 295.229C598.817 295.229 598.392 295.319 598.079 295.498C597.765 295.678 597.609 295.918 597.609 296.219C597.609 296.409 597.681 296.575 597.825 296.717C597.968 296.859 598.256 296.991 598.688 297.114L599.634 297.387C600.07 297.51 600.425 297.657 600.7 297.828C600.975 297.999 601.181 298.207 601.319 298.45C601.457 298.693 601.525 298.976 601.525 299.297C601.525 299.928 601.261 300.426 600.732 300.792C600.203 301.158 599.53 301.341 598.713 301.341C597.901 301.341 597.23 301.219 596.701 300.973L596.891 300.116C597.446 300.379 598.04 300.51 598.675 300.51C599.225 300.51 599.673 300.407 600.018 300.202C600.363 299.997 600.535 299.725 600.535 299.386C600.535 299.158 600.449 298.954 600.278 298.774C600.107 298.594 599.704 298.407 599.069 298.212C598.557 298.055 598.18 297.938 597.939 297.86C597.698 297.781 597.473 297.666 597.266 297.514C597.059 297.361 596.901 297.179 596.793 296.968C596.685 296.756 596.631 296.519 596.631 296.257C596.631 295.686 596.881 295.233 597.38 294.899C597.88 294.564 598.542 294.397 599.367 294.397C599.9 294.397 600.493 294.488 601.144 294.67L600.922 295.502Z"/>
<path clip-path="url(#TextBounds_9)" d="M608.724 295.502C608.169 295.32 607.647 295.229 607.156 295.229C606.618 295.229 606.193 295.319 605.88 295.498C605.567 295.678 605.41 295.918 605.41 296.219C605.41 296.409 605.482 296.575 605.626 296.717C605.77 296.859 606.058 296.991 606.489 297.114L607.435 297.387C607.871 297.51 608.226 297.657 608.501 297.828C608.776 297.999 608.983 298.207 609.12 298.45C609.258 298.693 609.327 298.976 609.327 299.297C609.327 299.928 609.062 300.426 608.533 300.792C608.004 301.158 607.331 301.341 606.515 301.341C605.702 301.341 605.031 301.219 604.502 300.973L604.693 300.116C605.247 300.379 605.842 300.51 606.476 300.51C607.027 300.51 607.474 300.407 607.819 300.202C608.164 299.997 608.336 299.725 608.336 299.386C608.336 299.158 608.251 298.954 608.079 298.774C607.908 298.594 607.505 298.407 606.87 298.212C606.358 298.055 605.981 297.938 605.74 297.86C605.499 297.781 605.275 297.666 605.067 297.514C604.86 297.361 604.702 297.179 604.594 296.968C604.486 296.756 604.433 296.519 604.433 296.257C604.433 295.686 604.682 295.233 605.182 294.899C605.681 294.564 606.343 294.397 607.168 294.397C607.702 294.397 608.294 294.488 608.946 294.67L608.724 295.502Z"/>
<path clip-path="url(#TextBounds_9)" d="M595.152 301.824L610.755 301.824L610.755 302.471L595.152 302.471L595.152 301.824Z"/>
</g>
<g fill="#000000" opacity="1" stroke="none">
<path clip-path="url(#TextBounds_10)" d="M86.65 295.502C86.0957 295.32 85.573 295.229 85.0821 295.229C84.5447 295.229 84.1194 295.319 83.8063 295.498C83.4931 295.678 83.3365 295.918 83.3365 296.219C83.3365 296.409 83.4085 296.575 83.5524 296.717C83.6962 296.859 83.984 296.991 84.4156 297.114L85.3614 297.387C85.7973 297.51 86.1528 297.657 86.4279 297.828C86.7029 297.999 86.9092 298.207 87.0467 298.45C87.1843 298.693 87.253 298.976 87.253 299.297C87.253 299.928 86.9886 300.426 86.4596 300.792C85.9306 301.158 85.2578 301.341 84.441 301.341C83.6285 301.341 82.9578 301.219 82.4288 300.973L82.6193 300.116C83.1736 300.379 83.7682 300.51 84.4029 300.51C84.9531 300.51 85.4006 300.407 85.7455 300.202C86.0904 299.997 86.2628 299.725 86.2628 299.386C86.2628 299.158 86.1771 298.954 86.0057 298.774C85.8343 298.594 85.4313 298.407 84.7965 298.212C84.2845 298.055 83.9078 297.938 83.6666 297.86C83.4254 297.781 83.2011 297.666 82.9938 297.514C82.7864 297.361 82.6288 297.179 82.5209 296.968C82.413 296.756 82.359 296.519 82.359 296.257C82.359 295.686 82.6087 295.233 83.108 294.899C83.6074 294.564 84.2696 294.397 85.0948 294.397C85.628 294.397 86.2205 294.488 86.8722 294.67L86.65 295.502Z"/>
<path clip-path="url(#TextBounds_10)" d="M94.4513 295.502C93.8969 295.32 93.3743 295.229 92.8834 295.229C92.346 295.229 91.9207 295.319 91.6075 295.498C91.2944 295.678 91.1378 295.918 91.1378 296.219C91.1378 296.409 91.2098 296.575 91.3536 296.717C91.4975 296.859 91.7853 296.991 92.2169 297.114L93.1627 297.387C93.5986 297.51 93.9541 297.657 94.2291 297.828C94.5042 297.999 94.7105 298.207 94.848 298.45C94.9856 298.693 95.0543 298.976 95.0543 299.297C95.0543 299.928 94.7898 300.426 94.2609 300.792C93.7319 301.158 93.059 301.341 92.2423 301.341C91.4298 301.341 90.7591 301.219 90.2301 300.973L90.4205 300.116C90.9749 300.379 91.5695 300.51 92.2042 300.51C92.7543 300.51 93.2019 300.407 93.5467 300.202C93.8916 299.997 94.0641 299.725 94.0641 299.386C94.0641 299.158 93.9784 298.954 93.807 298.774C93.6356 298.594 93.2325 298.407 92.5978 298.212C92.0857 298.055 91.7091 297.938 91.4679 297.86C91.2267 297.781 91.0024 297.666 90.795 297.514C90.5877 297.361 90.43 297.179 90.3221 296.968C90.2142 296.756 90.1603 296.519 90.1603 296.257C90.1603 295.686 90.4099 295.233 90.9093 294.899C91.4086 294.564 92.0709 294.397 92.8961 294.397C93.4293 294.397 94.0218 294.488 94.6735 294.67L94.4513 295.502Z"/>
<path clip-path="url(#TextBounds_10)" d="M80.88 301.824L96.4825 301.824L96.4825 302.471L80.88 302.471L80.88 301.824Z"/>
</g>
<g opacity="1">
<path d="M89.4328 276.565C89.4153 267.714 89.2256 171.844 89.2256 171.844" fill="none" stroke="#000000" stroke-dasharray="1.0" stroke-linecap="butt" stroke-linejoin="round" stroke-width="1"/>
<g fill="#000000" stroke="none">
<path d="M85.9299 275.072L89.4417 281.065L92.9299 275.058L85.9299 275.072Z" fill="#000000"/>
</g>
</g>
<g opacity="1">
<path d="M602.663 279.045C602.64 276.175 602.462 253.181 602.462 253.181" fill="none" stroke="#000000" stroke-dasharray="1.0" stroke-linecap="butt" stroke-linejoin="round" stroke-width="1"/>
<g fill="#000000" stroke="none">
<path d="M599.151 277.573L602.697 283.545L606.151 277.518L599.151 277.573Z" fill="#000000"/>
</g>
</g>
</g>
</svg>
